<svg id="Flat" height="512" viewBox="0 0 64 64" width="512" xmlns="http://www.w3.org/2000/svg"><path d="m22.454 11.847-10.607 10.607-8.131-1.768 16.97-16.97z" fill="#e35f5f"/><path d="m28.364 33.364h20a8 8 0 0 1 8 8v2a0 0 0 0 1 0 0h-36a0 0 0 0 1 0 0v-2a8 8 0 0 1 8-8z" fill="#e35f5f" transform="matrix(.707 -.707 .707 .707 -15.891 38.364)"/><path d="m43.314 40.485-2.829 2.829 15.557 15.556 4.242 1.414-1.414-4.242z" fill="#bcc1c4"/><path d="m41.899 27.757-14.142 14.142-15.91-19.445 10.607-10.607z" fill="#db3a3a"/></svg>