<?xml version="1.0" encoding="UTF-8" standalone="no"?>
<!-- Created with Inkscape (http://www.inkscape.org/) -->

<svg
   version="1.1"
   id="svg2820"
   xml:space="preserve"
   width="682.66669"
   height="682.66669"
   viewBox="0 0 682.66669 682.66669"
   xmlns="http://www.w3.org/2000/svg"
   xmlns:svg="http://www.w3.org/2000/svg"><defs
     id="defs2824"><clipPath
       clipPathUnits="userSpaceOnUse"
       id="clipPath2834"><path
         d="M 0,512 H 512 V 0 H 0 Z"
         id="path2832" /></clipPath></defs><g
     id="g2826"
     transform="matrix(1.3333333,0,0,-1.3333333,0,682.66667)"><g
       id="g2828"><g
         id="g2830"
         clip-path="url(#clipPath2834)"><g
           id="g2836"
           transform="translate(273.1333,7.5)"><path
             d="m 0,0 h -34.267 c -8.836,0 -16,7.164 -16,16 V 132.533 H 16 L 16,16 C 16,7.164 8.836,0 0,0 Z"
             style="fill:none;stroke:#000000;stroke-width:15;stroke-linecap:round;stroke-linejoin:round;stroke-miterlimit:10;stroke-dasharray:none;stroke-opacity:1"
             id="path2838" /></g><g
           id="g2840"
           transform="translate(222.8667,106.8999)"><path
             d="M 0,0 H 66.267"
             style="fill:none;stroke:#000000;stroke-width:15;stroke-linecap:round;stroke-linejoin:round;stroke-miterlimit:10;stroke-dasharray:none;stroke-opacity:1"
             id="path2842" /></g><g
           id="g2844"
           transform="translate(222.8667,73.7666)"><path
             d="M 0,0 H 66.267"
             style="fill:none;stroke:#000000;stroke-width:15;stroke-linecap:round;stroke-linejoin:round;stroke-miterlimit:10;stroke-dasharray:none;stroke-opacity:1"
             id="path2846" /></g><g
           id="g2848"
           transform="translate(146.6006,115.0215)"><path
             d="m 0,0 c -35.41,31.133 -56.267,76.315 -56.267,124.412 v 198.8 c 0,36.598 29.668,66.267 66.267,66.267 h 198.799 c 36.598,0 66.267,-29.669 66.267,-66.267 v -198.8 c 0,-58.193 -30.532,-112.118 -80.432,-142.058 -16.36,-9.816 -33.991,-16.571 -52.101,-20.265"
             style="fill:none;stroke:#000000;stroke-width:15;stroke-linecap:round;stroke-linejoin:round;stroke-miterlimit:10;stroke-dasharray:none;stroke-opacity:1"
             id="path2850" /></g><g
           id="g2852"
           transform="translate(222.9834,77.0864)"><path
             d="M 0,0 C -18.151,3.689 -35.823,10.452 -52.218,20.289"
             style="fill:none;stroke:#000000;stroke-width:15;stroke-linecap:round;stroke-linejoin:round;stroke-miterlimit:10;stroke-dasharray:none;stroke-opacity:1"
             id="path2854" /></g><g
           id="g2856"
           transform="translate(140.6694,174.1343)"><path
             d="m 0,0 c 11.254,-19.877 27.556,-36.595 47.143,-48.347 0.006,-0.004 0.012,-0.007 0.019,-0.011 0.837,-0.502 1.902,0.116 1.902,1.092 v 87.715 c 0,4.575 -3.709,8.283 -8.283,8.283 H -6.39 c -5.272,0 -9.163,-4.851 -8.105,-10.016 C -11.722,25.177 -6.844,12.088 0,0 Z"
             style="fill:none;stroke:#000000;stroke-width:15;stroke-linecap:round;stroke-linejoin:round;stroke-miterlimit:10;stroke-dasharray:none;stroke-opacity:1"
             id="path2858" /></g><g
           id="g2860"
           transform="translate(322.2666,214.5835)"><path
             d="m 0,0 v -87.715 c 0,-0.976 1.065,-1.595 1.902,-1.093 l 0.019,0.012 c 19.587,11.752 35.889,28.47 47.143,48.347 6.844,12.088 11.722,25.177 14.495,38.716 1.058,5.165 -2.833,10.016 -8.105,10.016 H 8.283 C 3.708,8.283 0,4.575 0,0 Z"
             style="fill:none;stroke:#000000;stroke-width:15;stroke-linecap:round;stroke-linejoin:round;stroke-miterlimit:10;stroke-dasharray:none;stroke-opacity:1"
             id="path2862" /></g><g
           id="g2864"
           transform="translate(164.8833,189.7334)"><path
             d="M 0,0 H -4.142"
             style="fill:none;stroke:#000000;stroke-width:15;stroke-linecap:round;stroke-linejoin:round;stroke-miterlimit:10;stroke-dasharray:none;stroke-opacity:1"
             id="path2866" /></g><g
           id="g2868"
           transform="translate(351.2583,189.7334)"><path
             d="M 0,0 H -4.142"
             style="fill:none;stroke:#000000;stroke-width:15;stroke-linecap:round;stroke-linejoin:round;stroke-miterlimit:10;stroke-dasharray:none;stroke-opacity:1"
             id="path2870" /></g><g
           id="g2872"
           transform="translate(347.3999,289.1333)"><path
             d="m 0,0 h -182.8 c -4.418,0 -8,3.582 -8,8 v 116.533 c 0,4.419 3.582,8 8,8 H 0 c 4.418,0 8,-3.581 8,-8 V 8 C 8,3.582 4.418,0 0,0 Z"
             style="fill:none;stroke:#000000;stroke-width:15;stroke-linecap:round;stroke-linejoin:round;stroke-miterlimit:10;stroke-dasharray:none;stroke-opacity:1"
             id="path2874" /></g><g
           id="g2876"
           transform="translate(123.4668,386.9673)"><path
             d="M 0,0 V 108.214"
             style="fill:none;stroke:#000000;stroke-width:15;stroke-linecap:round;stroke-linejoin:round;stroke-miterlimit:10;stroke-dasharray:none;stroke-opacity:1"
             id="path2878" /></g><g
           id="g2880"
           transform="translate(388.5332,495.1812)"><path
             d="m 0,0 v -222.614 c 0,-9.15 -7.417,-16.567 -16.566,-16.567 H -248.5 c -9.149,0 -16.566,7.417 -16.566,16.567 v 84.4"
             style="fill:none;stroke:#000000;stroke-width:15;stroke-linecap:round;stroke-linejoin:round;stroke-miterlimit:10;stroke-dasharray:none;stroke-opacity:1"
             id="path2882" /></g><g
           id="g2884"
           transform="translate(239.4331,454.7998)"><path
             d="M 0,0 H 33.134"
             style="fill:none;stroke:#000000;stroke-width:15;stroke-linecap:round;stroke-linejoin:round;stroke-miterlimit:10;stroke-dasharray:none;stroke-opacity:1"
             id="path2886" /></g><g
           id="g2888"
           transform="translate(272.5669,388.5332)"><path
             d="M 0,0 V -33.133 H 33.133"
             style="fill:none;stroke:#000000;stroke-width:15;stroke-linecap:round;stroke-linejoin:round;stroke-miterlimit:10;stroke-dasharray:none;stroke-opacity:1"
             id="path2890" /></g><g
           id="g2892"
           transform="translate(305.7002,388.5332)"><path
             d="M 0,0 V -66.267"
             style="fill:none;stroke:#000000;stroke-width:15;stroke-linecap:round;stroke-linejoin:round;stroke-miterlimit:10;stroke-dasharray:none;stroke-opacity:1"
             id="path2894" /></g><g
           id="g2896"
           transform="translate(206.2998,355.3999)"><path
             d="M 0,0 H 33.133 V -33.133 H 0 v 66.266 h 33.133"
             style="fill:none;stroke:#000000;stroke-width:15;stroke-linecap:round;stroke-linejoin:round;stroke-miterlimit:10;stroke-dasharray:none;stroke-opacity:1"
             id="path2898" /></g><g
           id="g2900"
           transform="translate(272.5669,322.2666)"><path
             d="M 0,0 V 4.142"
             style="fill:none;stroke:#000000;stroke-width:15;stroke-linecap:round;stroke-linejoin:round;stroke-miterlimit:10;stroke-dasharray:none;stroke-opacity:1"
             id="path2902" /></g><g
           id="g2904"
           transform="translate(214.5835,140.0332)"><path
             d="M 0,0 H 82.833"
             style="fill:none;stroke:#000000;stroke-width:15;stroke-linecap:round;stroke-linejoin:round;stroke-miterlimit:10;stroke-dasharray:none;stroke-opacity:1"
             id="path2906" /></g><g
           id="g2908"
           transform="translate(256,24.0669)"><path
             d="M 0,0 V -16.567"
             style="fill:none;stroke:#000000;stroke-width:15;stroke-linecap:round;stroke-linejoin:round;stroke-miterlimit:10;stroke-dasharray:none;stroke-opacity:1"
             id="path2910" /></g></g></g></g></svg>
