<?xml version="1.0" encoding="UTF-8" standalone="no"?>
<!-- Created with Inkscape (http://www.inkscape.org/) -->

<svg
   version="1.1"
   id="svg675"
   xml:space="preserve"
   width="682.66669"
   height="682.66669"
   viewBox="0 0 682.66669 682.66669"
   xmlns="http://www.w3.org/2000/svg"
   xmlns:svg="http://www.w3.org/2000/svg"><defs
     id="defs679"><clipPath
       clipPathUnits="userSpaceOnUse"
       id="clipPath689"><path
         d="M 0,512 H 512 V 0 H 0 Z"
         id="path687" /></clipPath></defs><g
     id="g681"
     transform="matrix(1.3333333,0,0,-1.3333333,0,682.66667)"><g
       id="g683"><g
         id="g685"
         clip-path="url(#clipPath689)"><g
           id="g691"
           transform="translate(62.3394,62.3394)"><path
             d="M 0,0 -55.249,-55.249"
             style="fill:none;stroke:#000000;stroke-width:15;stroke-linecap:round;stroke-linejoin:round;stroke-miterlimit:10;stroke-dasharray:none;stroke-opacity:1"
             id="path693" /></g><g
           id="g695"
           transform="translate(214.8853,293.7246)"><path
             d="m 0,0 31.932,31.932 78.84,-78.839 -185.119,-185.119 c -9.211,-9.211 -24.144,-9.211 -33.355,0 l -45.485,45.485 c -9.21,9.21 -9.21,24.144 0,33.354 l 128.525,128.525"
             style="fill:none;stroke:#000000;stroke-width:15;stroke-linecap:round;stroke-linejoin:round;stroke-miterlimit:10;stroke-dasharray:none;stroke-opacity:1"
             id="path697" /></g><g
           id="g699"
           transform="translate(333.1084,239.4751)"><path
             d="m 0,0 -93.633,93.633 c -3.47,3.47 -3.47,9.095 0,12.564 l 14.938,14.939 c 3.469,3.469 9.095,3.469 12.564,0 L 27.503,27.503 c 3.469,-3.47 3.469,-9.095 0,-12.565 L 12.564,0 C 9.095,-3.469 3.47,-3.469 0,0 Z"
             style="fill:none;stroke:#000000;stroke-width:15;stroke-linecap:round;stroke-linejoin:round;stroke-miterlimit:10;stroke-dasharray:none;stroke-opacity:1"
             id="path701" /></g><g
           id="g703"
           transform="translate(383.2471,355.3105)"><path
             d="m 0,0 -55.484,-55.484 -27.937,27.936 55.736,55.736"
             style="fill:none;stroke:#000000;stroke-width:15;stroke-linecap:round;stroke-linejoin:round;stroke-miterlimit:10;stroke-dasharray:none;stroke-opacity:1"
             id="path705" /></g><g
           id="g707"
           transform="translate(380.8604,425.6519)"><path
             d="m 0,0 c -10.133,-10.133 -26.562,-10.133 -36.696,0 -10.133,10.133 -10.133,26.562 0,36.696 C -26.562,46.83 -10.133,46.83 0,36.696 10.134,26.562 10.134,10.133 0,0 Z"
             style="fill:none;stroke:#000000;stroke-width:15;stroke-linecap:round;stroke-linejoin:round;stroke-miterlimit:10;stroke-dasharray:none;stroke-opacity:1"
             id="path709" /></g><g
           id="g711"
           transform="translate(504.792,366.3057)"><path
             d="m 0,0 c -0.887,14.301 -6.794,28.348 -17.723,39.276 -18.898,18.899 -47.12,22.766 -69.853,11.634 11.132,22.733 7.265,50.955 -11.634,69.854 -23.787,23.787 -62.352,23.787 -86.14,0 -23.786,-23.787 -23.786,-62.353 0,-86.139 18.9,-18.899 47.121,-22.766 69.855,-11.634 -11.132,-22.733 -7.266,-50.955 11.634,-69.854 23.786,-23.787 62.352,-23.787 86.138,0 4.07,4.069 7.442,8.57 10.119,13.356"
             style="fill:none;stroke:#000000;stroke-width:15;stroke-linecap:round;stroke-linejoin:round;stroke-miterlimit:10;stroke-dasharray:none;stroke-opacity:1"
             id="path713" /></g><g
           id="g715"
           transform="translate(462.3477,344.1646)"><path
             d="m 0,0 c -10.133,-10.133 -26.562,-10.133 -36.696,0 -10.133,10.133 -10.133,26.562 0,36.696 C -26.562,46.83 -10.133,46.83 0,36.696 10.134,26.562 10.134,10.133 0,0 Z"
             style="fill:none;stroke:#000000;stroke-width:15;stroke-linecap:round;stroke-linejoin:round;stroke-miterlimit:10;stroke-dasharray:none;stroke-opacity:1"
             id="path717" /></g><g
           id="g719"
           transform="translate(78.6411,46.0371)"><path
             d="m 0,0 -32.604,32.604 c -3.098,3.098 -3.098,8.121 0,11.219 L -16.112,60.315 27.711,16.492 11.219,0 C 8.121,-3.098 3.098,-3.098 0,0 Z"
             style="fill:none;stroke:#000000;stroke-width:15;stroke-linecap:round;stroke-linejoin:round;stroke-miterlimit:10;stroke-dasharray:none;stroke-opacity:1"
             id="path721" /></g><g
           id="g723"
           transform="translate(260.2754,242.5957)"><path
             d="M 0,0 6.9,-6.9"
             style="fill:none;stroke:#000000;stroke-width:15;stroke-linecap:round;stroke-linejoin:round;stroke-miterlimit:10;stroke-dasharray:none;stroke-opacity:1"
             id="path725" /></g><g
           id="g727"
           transform="translate(215.4502,224.0898)"><path
             d="M 0,0 20.06,-20.06"
             style="fill:none;stroke:#000000;stroke-width:15;stroke-linecap:round;stroke-linejoin:round;stroke-miterlimit:10;stroke-dasharray:none;stroke-opacity:1"
             id="path729" /></g><g
           id="g731"
           transform="translate(196.9443,179.2646)"><path
             d="M 0,0 6.9,-6.9"
             style="fill:none;stroke:#000000;stroke-width:15;stroke-linecap:round;stroke-linejoin:round;stroke-miterlimit:10;stroke-dasharray:none;stroke-opacity:1"
             id="path733" /></g><g
           id="g735"
           transform="translate(152.1191,160.7588)"><path
             d="M 0,0 20.06,-20.06"
             style="fill:none;stroke:#000000;stroke-width:15;stroke-linecap:round;stroke-linejoin:round;stroke-miterlimit:10;stroke-dasharray:none;stroke-opacity:1"
             id="path737" /></g><g
           id="g739"
           transform="translate(133.6133,115.9336)"><path
             d="M 0,0 6.9,-6.9"
             style="fill:none;stroke:#000000;stroke-width:15;stroke-linecap:round;stroke-linejoin:round;stroke-miterlimit:10;stroke-dasharray:none;stroke-opacity:1"
             id="path741" /></g></g></g></g></svg>
