<?xml version="1.0" encoding="UTF-8"?>
<svg id="Layer_1" xmlns="http://www.w3.org/2000/svg" version="1.1" viewBox="0 0 38 38">
  <!-- Generator: Adobe Illustrator 30.0.0, SVG Export Plug-In . SVG Version: 2.1.1 Build 123)  -->
  <g id="Tablets">
    <g>
      <path d="M6.7,20.3l-2.57-14.51c-.07-.42.21-.82.63-.89l8.58-1.52c.3-.05.57.01.73.18,1.27,1.25,3.03.84,3.65-.66.08-.2.29-.35.55-.39l9.26-1.64c.42-.07.82.21.89.62l.44,2.47c.03.16.18.26.33.23.16-.03.26-.18.23-.33l-.44-2.47c-.13-.73-.83-1.22-1.56-1.09l-9.26,1.64c-.45.08-.82.36-.98.74-.48,1.15-1.76,1.4-2.71.47-.3-.3-.75-.42-1.24-.34l-8.58,1.52c-.74.13-1.23.83-1.1,1.56l2.57,14.51"/>
      <path d="M21.42,31.56l-4.54-25.66c-.07-.38-.63-.27-.57.1l4.54,25.66c.07.38.63.27.57-.1Z"/>
      <path d="M9.11,14.25c1.9,1.11,4.18.27,5.05-1.55.85-1.79.08-3.93-1.72-4.78-2.31-1.09-5,.53-5.12,3.08-.06,1.27.6,2.57,1.79,3.26ZM11.18,12.5l-2.44-.96c-.15-.06-.22-.23-.16-.38.06-.14.22-.22.37-.16l2.45.96c.14.06.22.23.16.37-.06.16-.25.22-.38.17ZM13.74,10.15c.24.67.22,1.38-.01,2.03l-5.39-2.55c1.35-2.25,4.56-1.81,5.4.52Z"/>
      <path d="M13.39,23.62c1.92-.49,3.08-2.45,2.58-4.37-.79-3.06-4.93-3.7-6.57-.93-1.62,2.74.89,6.09,3.99,5.3ZM15.41,19.4c.18.69.1,1.39-.2,2.02l-5.15-3.04c1.52-2.1,4.72-1.41,5.35,1.01Z"/>
      <path d="M17.44,27.88c-.34-.9-1-1.61-1.88-2.01-2.9-1.32-5.96,1.54-4.85,4.52.69,1.85,2.75,2.78,4.62,2.11,1.75-.63,2.8-2.76,2.1-4.62ZM16.91,28.08c.25.66.24,1.37.02,2.03l-5.44-2.48c1.29-2.25,4.54-1.9,5.42.45Z"/>
      <path d="M19.71,6.66c-.52.84-.26,1.95.58,2.47l2.17,1.35h0c2.06,1.2,2.47,1.82,3.53,1.57,1.58-.37,1.86-2.44.54-3.26l-4.36-2.7c-.84-.52-1.95-.26-2.47.58ZM26.76,10.02c.24,1.05-.91,1.88-1.81,1.32l-1.94-1.2,1.28-2.07,1.94,1.2c.27.17.46.43.53.75Z"/>
      <path d="M26.19,20.58c.84.52,1.94.25,2.46-.59.25-.41.33-.89.22-1.35s-.39-.86-.79-1.11l-2.18-1.35s0,0,0,0l-2.17-1.35c-.97-.6-2.29-.16-2.65.99-.16.52-.09,1.1.25,1.57,0,0,.01.01.02.02.37.5.43.37,4.85,3.16ZM28.31,18.77c.07.32.02.64-.15.92-.35.57-1.1.75-1.67.4l-1.94-1.2,1.28-2.07,1.94,1.2c.27.17.46.43.53.75Z"/>
      <path d="M23.38,27.04c.29.2,1.95,1.22,2.26,1.41,1.98,1.14,2.28,1.61,3.11,1.61,1.83,0,2.44-2.39.96-3.31-.12-.07-2.33-1.44-2.18-1.36l-2.18-1.35c-1.18-.73-2.73.13-2.73,1.52,0,0,0,.01,0,.02,0,.52.25,1.09.76,1.44ZM25.82,26.28c-.18,0-.15-.06-2.1-1.17-.14-.08-.18-.25-.1-.39.08-.14.26-.18.4-.1l1.93,1.14c.25.15.15.53-.14.53ZM29.94,27.99c.24,1.05-.91,1.88-1.81,1.32l-1.94-1.2,1.28-2.07,1.94,1.2c.27.17.46.43.53.75Z"/>
      <path d="M22.48,3.74l3.96-.7c.16-.03.26-.18.23-.33-.03-.16-.18-.26-.33-.23l-3.96.7c-.37.07-.28.63.1.57Z"/>
      <path d="M11.42,35.18c-.38.07-.27.64.1.57l4.21-.74c.16-.03.26-.18.23-.33s-.18-.26-.33-.23l-4.21.74Z"/>
      <path d="M8.96,36.38l.04.22c.13.74.85,1.23,1.57,1.1l8.34-1.47c.49-.1.89-.46,1.07-.98.41-1.28,2.2-1.78,3.1-.54.28.41.81.63,1.31.54l8.95-1.58c.73-.13,1.21-.84,1.08-1.57L29.44,3.87c-.07-.38-.63-.27-.57.1l4.99,28.23c.07.41-.21.82-.62.9l-8.95,1.58c-.29.05-.58-.07-.74-.3-1.19-1.65-3.58-1.02-4.12.68-.11.32-.35.54-.63.6l-8.34,1.47c-.42.07-.82-.2-.9-.63l-.05-.31"/>
      <path d="M9.52,36.19l-2.81-15.88c-.03-.16-.18-.26-.33-.23-.16.03-.26.18-.23.33l2.83,15.97"/>
    </g>
  </g>
</svg>